# xmcd
#
# Track frame offsets: 
#        150
#        14504
#        62893
#        101029
#        126578
#        144195
#        170746
#
# Disc length: 2600 seconds
#
# Revision: 1
# Processed by: cddbd v1.5.2PL0 Copyright (c) Steve Scherf et al.
# Submitted via: ExactAudioCopy v0.99pb4
#
DISCID=660a2607
DTITLE=Mighty Joe Young - Blues With a Touch of Soul
DYEAR=1970
DGENRE=Blues
TTITLE0=I Walked All Night
TTITLE1=Somebody Lone Me A Dime
TTITLE2=Every Man Needs A Woman
TTITLE3=Why Baby?
TTITLE4=Things I Used To Do
TTITLE5=Got a Bad Case of Loving You
TTITLE6=Honky Tonk
EXTD=
EXTT0=
EXTT1=
EXTT2=
EXTT3=
EXTT4=
EXTT5=
EXTT6=
PLAYORDER=
